<svg height="60.002" id="AbstergoCurve" viewBox="0 0 60 60.002" width="60"
    xmlns="http://www.w3.org/2000/svg">
    <path d="M51.111,0H8.889L0,8.889V51.111L8.889,60H51.111L60,51.111V8.889L51.111,0M15.675,32.9Q24.358,17.822,33.057,2.756c.063-.107.2-.171.4-.331.325.508.646.974.93,1.461C35.9,6.5,37.39,9.116,38.921,11.717a1.362,1.362,0,0,1-.082,1.522c-1.044,1.789-2.095,3.573-3.133,5.367C33.112,23.1,30.535,27.6,27.92,32.077c-.784,1.342-.439,1.25-2.128,1.25q-4.551,0-9.1,0c-.331,0-.662-.024-1-.036-.009-.2-.053-.321-.013-.394M2.118,45.867a6.565,6.565,0,0,1,.271-.616c1.638-2.852,3.3-5.688,4.908-8.559a1.525,1.525,0,0,1,1.541-.88q11.047.035,22.094,0a1.426,1.426,0,0,1,1.435.721c1.759,3.09,3.533,6.173,5.348,9.342-.958.2-34.7.194-35.6-.008M54.747,51.29c-3.412.009-6.824,0-10.235.014a1.1,1.1,0,0,1-1.069-.622c-1.057-1.855-2.148-3.692-3.219-5.54q-1.992-3.436-3.975-6.879c-1.337-2.321-2.662-4.65-4.019-6.962a1.473,1.473,0,0,1,.052-1.692c1.6-2.717,3.147-5.471,4.716-8.208.152-.263.334-.508.524-.793a1.9,1.9,0,0,1,.293.074.36.36,0,0,1,.163.118q8.648,14.984,17.286,29.973c.044.077.019.194.03.362a2.085,2.085,0,0,1-.547.155" data-name="AbstergoCurve"
        fill="#c4091e"
        id="AbstergoCurve-2" />
</svg>
