<svg height="59.998" id="ActionCurve" viewBox="0 0 60 60" width="60"
    xmlns="http://www.w3.org/2000/svg">
    <path d="M51.428,0H8.572L0,8.571V51.428L8.572,60H51.428L60,51.428V8.571ZM29.16,2.157a2.217,2.217,0,0,1,1.472-.4l1.261.094a2.554,2.554,0,0,1,1.479.613l.075.066L32.5,4.642a4.063,4.063,0,0,0-1.64-.019L22.94,6.254c-1.024-.64,6.22-4.1,6.22-4.1M18.8,8.866,31.2,6.367A2.231,2.231,0,0,1,33.6,7.5l1.215,2.241a4.119,4.119,0,0,1,.5,1.95v4.854a2.586,2.586,0,0,1-.663,1.736l-.632.655V15.253l-.008-2.159a2.63,2.63,0,0,0-1.856-2.347c-2.513-.4-6-.582-8.54-.894l-5.187-.514-1.331-.132ZM33.779,55.282l1.367-4.735L26.66,45.834l1.11,3.95,1.623.193.241,7.068-2.077-5.373-1.781.2L17.422,39.821,13.267,23.433a7.573,7.573,0,0,1-.193-2.636l.7-6.847a2.68,2.68,0,0,1,.795-1.645l1.452-1.416,15.619,1.56a.848.848,0,0,1,.6.754c.017,1.311-.014,4.9,0,6.259a27.48,27.48,0,0,1-.06,2.94,2.687,2.687,0,0,1-.889,1.325c-.252.263-.738.746-1.21,1.217.016-1.867.039-4.523.044-5.674a3.513,3.513,0,0,0-2.629-3.343c-1.043-.461-2.167-1.047-3.209-1.489-1.469-.561-2.865-1.3-4.726-.952,1.565,2.226,3.887,2.683,6.124,3.661.483.218,1.662.627,2.03.853a1.407,1.407,0,0,1,.632,1.256l-.017,2.358L28.3,25.3a18.668,18.668,0,0,1-1.533,1.287c-1.29.723-2.168-.144-3.368-.961l-1.574-1.082V22.383c.077.049.161.083.235.138a3.69,3.69,0,0,0,1.969-.064A3.691,3.691,0,0,0,22.9,20.84c-.9-.329-1.957-.952-2.858-1.314v5.953l.386.265c.651.431,2.306,1.607,2.94,2.019a3.9,3.9,0,0,0,5.3-.428c1.229,2.8,1.25,6.021-1.163,8.109a9.633,9.633,0,0,0-2.048,2.85c4.111-.14,6.353-5.136,5.723-8.761a11.553,11.553,0,0,0-.706-2.46c.5-.511,1.049-1.08,1.334-1.347.235-.256.894-.878,1.118-1.13a4.148,4.148,0,0,0,1.094-3.111l1.921-1.99a4.374,4.374,0,0,0,1.143-2.952v-4.71l2.752.144-2.974-1.864a5.889,5.889,0,0,0-.486-1.221L35.163,6.652a2.317,2.317,0,0,0-.618-.742,1.078,1.078,0,0,1-.11-1.355l.359-.8a1.467,1.467,0,0,1,1.485-.861l1,.1a2.442,2.442,0,0,1,1.549.767l4.086,4.378a3.794,3.794,0,0,1,.955,3.294L41.693,22.952A10.5,10.5,0,0,1,39.8,27.265l-1.475,1.987a5.467,5.467,0,0,1-2.358,1.814l-3.426.8,3.2.927-.2,1.645,5.834,6.836-3.532-.132,1.839,1.275-.45,1.856,3.277,2.8-5.18-1.635-.778-1.627-3.338-.793,6.046,5.914-1.87,4.384,6.681,3.8Z" data-name="ActionCurve"
        fill="#6b407b"
        id="ActionCurve-2" transform="translate(0 -0.001)" />
</svg>
