<svg xmlns="http://www.w3.org/2000/svg" width="20.401" height="36.395" viewBox="0 0 20.401 36.395">
  <path id="Action" d="M10.6.268a1.459,1.459,0,0,1,.968-.263L12.4.067a1.675,1.675,0,0,1,.972.4l.049.043L12.8,1.9a2.659,2.659,0,0,0-1.078-.012L6.511,2.961C5.838,2.541,10.6.266,10.6.266M3.79,4.678l8.151-1.643a1.466,1.466,0,0,1,1.578.745l.8,1.473a2.709,2.709,0,0,1,.329,1.281V9.726a1.7,1.7,0,0,1-.436,1.141l-.415.431V8.876L13.79,7.457a1.729,1.729,0,0,0-1.22-1.543c-1.652-.263-3.944-.382-5.614-.587L3.547,4.989,2.672,4.9Zm9.847,30.511.9-3.113-5.578-3.1.73,2.6,1.067.127.158,4.646L9.546,32.816l-1.171.131L2.885,25.026.153,14.254a4.963,4.963,0,0,1-.127-1.733l.46-4.5a1.762,1.762,0,0,1,.523-1.081l.954-.931L12.23,7.033a.559.559,0,0,1,.394.5c.011.862-.009,3.221,0,4.114a17.882,17.882,0,0,1-.039,1.933,1.761,1.761,0,0,1-.584.871c-.166.173-.485.49-.8.8.011-1.227.026-2.973.029-3.73a2.31,2.31,0,0,0-1.728-2.2c-.686-.3-1.425-.688-2.109-.979A5.373,5.373,0,0,0,4.29,7.715c1.029,1.463,2.555,1.764,4.026,2.407.318.143,1.093.412,1.334.561a.924.924,0,0,1,.415.826l-.011,1.55-.02,2.423a12.143,12.143,0,0,1-1.008.846c-.848.475-1.425-.095-2.214-.632l-1.035-.711V13.563c.051.032.106.055.154.091a2.425,2.425,0,0,0,1.294-.042,2.426,2.426,0,0,0-.742-1.063c-.592-.216-1.286-.626-1.879-.864V15.6l.254.174c.428.283,1.516,1.056,1.933,1.327a2.564,2.564,0,0,0,3.484-.281c.808,1.841.822,3.958-.765,5.331a6.334,6.334,0,0,0-1.346,1.873c2.7-.092,4.176-3.376,3.762-5.759a7.557,7.557,0,0,0-.464-1.617c.329-.336.69-.71.877-.885.154-.168.588-.577.735-.743a2.726,2.726,0,0,0,.719-2.045l1.263-1.308a2.876,2.876,0,0,0,.751-1.941v-3.1l1.809.095L15.663,5.5a3.864,3.864,0,0,0-.319-.8l-.8-1.472a1.524,1.524,0,0,0-.406-.488.708.708,0,0,1-.072-.891l.236-.526A.964.964,0,0,1,15.28.753l.657.066a1.606,1.606,0,0,1,1.018.5L19.641,4.2a2.5,2.5,0,0,1,.628,2.165l-1.43,7.572a6.907,6.907,0,0,1-1.244,2.835l-.97,1.306a3.6,3.6,0,0,1-1.55,1.192l-2.252.526,2.1.609-.131,1.081,3.835,4.493-2.322-.087,1.209.838-.3,1.22,2.154,1.841L15.97,28.718l-.511-1.07-2.194-.521,3.974,3.888L16.009,33.9l4.392,2.5Z" transform="translate(0 0)" fill="#6b407b"/>
</svg>
