<svg height="32.227" viewBox="0 0 26.497 32.227" width="26.497" xmlns="http://www.w3.org/2000/svg">
    <path d="M14.651,28.352a.632.632,0,0,1-.679-.519.359.359,0,0,1,.33-.385h.005l.134-.037a11.006,11.006,0,0,0,2.74-1.086,6.448,6.448,0,0,0,1.543-1.141,3.678,3.678,0,0,0,1.043-1.923,3.792,3.792,0,0,0-.1-1.8,4.828,4.828,0,0,0-.26-.658c-.065-.14-.131-.286-.2-.46-1.006-2.6-2.015-5.1-3.02-7.613-.974-2.431-1.95-4.862-2.926-7.376-1.009,2.594-2.031,5.1-3.021,7.531-1,2.45-2.034,4.983-3.051,7.6a7.733,7.733,0,0,0-.417,1.3A3.623,3.623,0,0,0,7.6,24.957,5.854,5.854,0,0,0,9.13,26.2a10.455,10.455,0,0,0,2.726,1.137l.39.1a.378.378,0,0,1,.295.423.612.612,0,0,1-.653.477,1.072,1.072,0,0,1-.2-.02,17.033,17.033,0,0,1-5.2-1.873,13.367,13.367,0,0,1-2.808-2.1,2.325,2.325,0,0,0-1.519-.678H2.14a2.049,2.049,0,0,0-.719.123.257.257,0,0,1-.079.012.152.152,0,0,1-.106-.031c-.035-.036-.095-.076-.076-.123a7.272,7.272,0,0,0-.132-5.844.128.128,0,0,1,.176-.164l.159.085A4.248,4.248,0,0,0,3.02,18.3a3.534,3.534,0,0,0,.418.025,3.211,3.211,0,0,0,2.044-.741,5.1,5.1,0,0,0,1.061-1.2,10.408,10.408,0,0,0,.92-1.877L13.107.172l.039-.093a.127.127,0,0,1,.236,0l.088.207,4.244,10.774Q18.475,13,19.24,14.928a7.371,7.371,0,0,0,1.126,1.981,3.879,3.879,0,0,0,1.481,1.165,3.179,3.179,0,0,0,1.238.254,3.848,3.848,0,0,0,1.061-.16,4.453,4.453,0,0,0,1.053-.46l.106-.06a.143.143,0,0,1,.07-.017.13.13,0,0,1,.133.127.123.123,0,0,1-.006.044,7.272,7.272,0,0,0-.138,5.846.127.127,0,0,1-.066.167.142.142,0,0,1-.052.01.132.132,0,0,1-.031,0c-.09-.021-.118-.028-.148-.038a1.951,1.951,0,0,0-.637-.11,2.026,2.026,0,0,0-.893.217,3.026,3.026,0,0,0-.829.582,12.827,12.827,0,0,1-3.589,2.449,17.681,17.681,0,0,1-4.264,1.411,1.053,1.053,0,0,1-.206.022m-1.4,3.872a16.379,16.379,0,0,1-12.837-6.4c-.459-.549-.454-.884-.366-1.07a.406.406,0,0,1,.363-.239.273.273,0,0,1,.2.08C2.9,27,6.5,29.854,10.668,29.854H10.9a2.425,2.425,0,0,0,2.247-1.214.127.127,0,0,1,.118-.08.13.13,0,0,1,.118.078c.345.825,1.227,1.227,2.692,1.227h.189c3.2-.174,6.354-1.879,9.629-5.211a.332.332,0,0,1,.239-.106.354.354,0,0,1,.315.219c.063.14.15.536-.418,1.188a16.478,16.478,0,0,1-12.782,6.268Z"
        fill="#ffffff"
        id="Creed" transform="translate(0 0)" />
</svg>
