<svg height="60" id="CreedCurve" viewBox="0 0 60 60" width="60" xmlns="http://www.w3.org/2000/svg">
    <path d="M51.112,0H8.888L0,8.888V51.11L8.888,60H51.112L60,51.11V8.888L51.112,0M32.283,50.712a1.073,1.073,0,0,1-1.152-.881.609.609,0,0,1,.569-.655l.227-.063a18.664,18.664,0,0,0,4.649-1.842,10.94,10.94,0,0,0,2.617-1.935,6.239,6.239,0,0,0,1.769-3.263,6.426,6.426,0,0,0-.166-3.061,8.179,8.179,0,0,0-.441-1.115c-.11-.238-.223-.486-.337-.781C38.311,32.709,36.6,28.456,34.895,24.2c-1.653-4.124-3.308-8.249-4.964-12.513-1.711,4.4-3.446,8.659-5.125,12.777-1.7,4.156-3.451,8.454-5.176,12.9a13.124,13.124,0,0,0-.707,2.206,6.146,6.146,0,0,0,1.394,5.383,9.918,9.918,0,0,0,2.6,2.109,17.73,17.73,0,0,0,4.625,1.929l.662.177a.641.641,0,0,1,.5.717,1.038,1.038,0,0,1-1.108.809,1.769,1.769,0,0,1-.337-.034,28.909,28.909,0,0,1-8.819-3.178,22.653,22.653,0,0,1-4.763-3.562A3.944,3.944,0,0,0,11.1,42.77h-.041a3.487,3.487,0,0,0-1.22.209A.435.435,0,0,1,9.705,43a.256.256,0,0,1-.18-.052c-.06-.061-.161-.129-.129-.209a12.336,12.336,0,0,0-.224-9.915.217.217,0,0,1,.052-.248.214.214,0,0,1,.147-.056.218.218,0,0,1,.1.025l.27.144a7.206,7.206,0,0,0,2.811.972,6.089,6.089,0,0,0,.709.042,5.434,5.434,0,0,0,3.467-1.257,8.6,8.6,0,0,0,1.8-2.038,17.594,17.594,0,0,0,1.56-3.183L29.663,2.905l.067-.157a.216.216,0,0,1,.4,0l.149.351,7.2,18.278q1.291,3.283,2.59,6.562A12.5,12.5,0,0,0,41.98,31.3a6.566,6.566,0,0,0,2.512,1.976,5.364,5.364,0,0,0,2.1.431,6.5,6.5,0,0,0,1.8-.27,7.511,7.511,0,0,0,1.786-.782l.179-.1a.233.233,0,0,1,.118-.028.221.221,0,0,1,.215.29,12.334,12.334,0,0,0-.234,9.917.215.215,0,0,1-.2.3.2.2,0,0,1-.052-.006c-.152-.036-.2-.047-.251-.064a3.3,3.3,0,0,0-1.08-.187,3.433,3.433,0,0,0-1.515.368,5.123,5.123,0,0,0-1.406.988,21.777,21.777,0,0,1-6.088,4.155,30,30,0,0,1-7.233,2.393,1.774,1.774,0,0,1-.35.038m-2.375,6.569A27.787,27.787,0,0,1,8.128,46.433c-.779-.931-.77-1.5-.621-1.816a.688.688,0,0,1,.615-.406.463.463,0,0,1,.342.135c3.876,4.067,9.984,8.915,17.062,8.915l.4,0c1.391-.089,3.189-.517,3.812-2.06a.214.214,0,0,1,.2-.136h0a.221.221,0,0,1,.2.133c.586,1.4,2.082,2.081,4.567,2.081l.32,0c5.433-.295,10.779-3.188,16.336-8.84a.564.564,0,0,1,.406-.179.6.6,0,0,1,.535.372c.107.237.254.909-.709,2.015A27.953,27.953,0,0,1,29.909,57.281Z" data-name="CreedCurve"
        fill="#1a1818"
        id="CreedCurve-2" />
</svg>
