<svg xmlns="http://www.w3.org/2000/svg" width="38.27" height="38.27" viewBox="0 0 38.27 38.27">
  <path id="DieAction" d="M32.8,0H5.47C3.33,2.13,2.13,3.33,0,5.47V32.8l5.47,5.47H32.8c2.13-2.14,3.33-3.33,5.47-5.47V5.47ZM18.6,1.38a1.415,1.415,0,0,1,.94-.25l.8.06a1.616,1.616,0,0,1,.94.39l.05.04-.6,1.34a2.648,2.648,0,0,0-1.05-.01L14.63,3.99c-.65-.41,3.97-2.61,3.97-2.61ZM11.99,5.66,19.9,4.07a1.423,1.423,0,0,1,1.53.72l.77,1.43a2.573,2.573,0,0,1,.32,1.24v3.1a1.647,1.647,0,0,1-.42,1.11l-.4.42V8.36a1.7,1.7,0,0,0-1.19-1.5c-1.6-.25-3.83-.37-5.45-.57l-3.31-.33-.85-.08,1.09-.22Zm9.56,29.6.87-3.02-5.41-3.01.71,2.52,1.03.12.15,4.51-1.33-3.43-1.14.12L11.1,25.39,8.45,14.94a4.761,4.761,0,0,1-.12-1.68l.45-4.37a1.69,1.69,0,0,1,.51-1.05l.93-.9,9.96,1a.536.536,0,0,1,.38.48c.01.84,0,3.13,0,3.99a16.649,16.649,0,0,1-.04,1.88,1.735,1.735,0,0,1-.57.84c-.16.17-.47.48-.77.78,0-1.19.02-2.89.03-3.62a2.24,2.24,0,0,0-1.68-2.13c-.67-.29-1.38-.67-2.05-.95a5.214,5.214,0,0,0-3.01-.61c1,1.42,2.48,1.71,3.91,2.34.31.14,1.06.4,1.3.54a.878.878,0,0,1,.4.8v1.5l-.03,2.35c-.33.29-.67.6-.98.82-.82.46-1.38-.09-2.15-.61l-1-.69V14.27a1.1,1.1,0,0,1,.15.09,2.465,2.465,0,0,0,1.26-.04,2.345,2.345,0,0,0-.72-1.03c-.57-.21-1.25-.61-1.82-.84v3.49h0v.31l.25.17c.42.27,1.47,1.03,1.88,1.29a2.5,2.5,0,0,0,3.38-.27c.78,1.78.8,3.84-.74,5.17a6.14,6.14,0,0,0-1.31,1.82c2.62-.09,4.05-3.28,3.65-5.59a7.461,7.461,0,0,0-.45-1.57c.32-.33.67-.69.85-.86.15-.16.57-.56.71-.72a2.644,2.644,0,0,0,.7-1.98l1.23-1.27a2.807,2.807,0,0,0,.73-1.88v-3l1.75.09-1.9-1.19a4.371,4.371,0,0,0-.31-.78l-.77-1.43a1.457,1.457,0,0,0-.39-.47.68.68,0,0,1-.07-.86l.23-.51a.935.935,0,0,1,.95-.55l.64.06a1.566,1.566,0,0,1,.99.49L27.4,5.2a2.411,2.411,0,0,1,.61,2.1l-1.39,7.35a6.727,6.727,0,0,1-1.2,2.75l-.94,1.27a3.433,3.433,0,0,1-1.5,1.16l-2.19.51,2.04.59-.13,1.05,3.72,4.36-2.25-.08,1.17.81-.29,1.18,2.09,1.78-3.3-1.04-.5-1.04-2.13-.51,3.86,3.77-1.19,2.8,4.26,2.42-6.56-1.17Z" fill="#85538d"/>
</svg>
