<?xml version="1.0" encoding="UTF-8"?>
<svg id="Abstergo" data-name="Abstergo" xmlns="http://www.w3.org/2000/svg" width="38.27" height="38.27" viewBox="0 0 38.27 38.27">
  <path d="m32.6,0H5.67L0,5.67v26.93l5.67,5.67h26.93l5.67-5.67V5.67l-5.67-5.67ZM10,21L21.1,1.8c0-.1.1-.1.2-.2l.6.9c1,1.7,1.9,3.3,2.9,5,.151.316.151.684,0,1-.7,1.1-1.3,2.3-2,3.4-1.7,2.9-3.3,5.7-5,8.6-.5.9-.3.8-1.4.8h-6.4v-.3ZM1.3,29.3c.1-.1.1-.3.2-.4,1-1.8,2.1-3.6,3.1-5.5.17-.394.573-.635,1-.6h14.1c.377-.046.74.156.9.5,1.1,2,2.2,3.9,3.4,6-.6.1-22.1.1-22.7,0Zm33.8,3.4v-.04c-.043.005-.137.04-.2.04h-6.5c-.291.013-.563-.143-.7-.4-.7-1.2-1.4-2.4-2.1-3.5-.8-1.5-1.7-2.9-2.5-4.4-.9-1.5-1.7-3-2.6-4.4-.2-.339-.2-.761,0-1.1,1-1.7,2-3.5,3-5.2.1-.2.2-.3.3-.5.1,0,.2,0,.2.1.055,0,.1.045.1.1,3.7,6.4,7.4,12.7,11,19.1v.16c.026-.003.038.002,0,.04Z" style="fill: #d2232a;"/>
</svg>