<svg id="Creed" data-name="Creed" xmlns="http://www.w3.org/2000/svg" width="38.27" height="38.27" viewBox="0 0 38.27 38.27">
  <path d="M32.6,0H5.67L0,5.67V32.6l5.67,5.67H32.6l5.67-5.67V5.67ZM20.59,32.34a.673.673,0,0,1-.73-.56.384.384,0,0,1,.36-.42l.14-.04a12.075,12.075,0,0,0,2.97-1.17A7.09,7.09,0,0,0,25,28.92a3.91,3.91,0,0,0,1.13-2.08,4.033,4.033,0,0,0-.11-1.95,4.777,4.777,0,0,0-.28-.71c-.07-.15-.14-.31-.21-.5-1.09-2.81-2.18-5.52-3.27-8.24-1.05-2.63-2.11-5.26-3.17-7.98-1.09,2.81-2.2,5.52-3.27,8.15-1.08,2.65-2.2,5.39-3.3,8.23a8.279,8.279,0,0,0-.45,1.41,3.907,3.907,0,0,0,.89,3.43,6.381,6.381,0,0,0,1.66,1.35,11.493,11.493,0,0,0,2.95,1.23l.42.11a.408.408,0,0,1,.32.46.661.661,0,0,1-.71.52.858.858,0,0,1-.22-.02,18.148,18.148,0,0,1-5.62-2.03,14.424,14.424,0,0,1-3.04-2.27,2.5,2.5,0,0,0-1.64-.73H7.05a2.241,2.241,0,0,0-.78.13c-.02,0-.05.01-.08.01a.156.156,0,0,1-.12-.03c-.04-.04-.1-.08-.08-.13a7.866,7.866,0,0,0-.14-6.32.157.157,0,0,1,.03-.16.18.18,0,0,1,.09-.04.108.108,0,0,1,.07.02l.17.09A4.562,4.562,0,0,0,8,21.49a3.4,3.4,0,0,0,.45.03,3.474,3.474,0,0,0,2.21-.8,5.476,5.476,0,0,0,1.15-1.3,11.53,11.53,0,0,0,1-2.03L18.92,1.85l.04-.1a.134.134,0,0,1,.13-.08h0a.134.134,0,0,1,.13.08l.1.22,4.59,11.66c.55,1.4,1.1,2.79,1.65,4.19a7.88,7.88,0,0,0,1.22,2.14,4.254,4.254,0,0,0,1.6,1.26,3.46,3.46,0,0,0,1.34.28,4.329,4.329,0,0,0,1.15-.17,4.819,4.819,0,0,0,1.14-.5l.11-.06a.291.291,0,0,1,.08-.02.122.122,0,0,1,.09.03.127.127,0,0,1,.04.15,7.867,7.867,0,0,0-.15,6.32.14.14,0,0,1-.02.14.139.139,0,0,1-.1.05h-.03a1.12,1.12,0,0,1-.16-.04,2.089,2.089,0,0,0-.69-.12,2.3,2.3,0,0,0-.97.23,3.319,3.319,0,0,0-.9.63,13.7,13.7,0,0,1-3.88,2.65,19.209,19.209,0,0,1-4.61,1.53.858.858,0,0,1-.22.02Zm-1.51,4.19A17.713,17.713,0,0,1,5.19,29.61c-.5-.59-.49-.96-.4-1.16a.434.434,0,0,1,.39-.26.279.279,0,0,1,.22.09c2.47,2.59,6.37,5.69,10.88,5.69h.26a2.622,2.622,0,0,0,2.43-1.32.142.142,0,0,1,.13-.09h0a.134.134,0,0,1,.13.08c.37.89,1.33,1.33,2.91,1.33h.2c3.47-.19,6.87-2.04,10.42-5.64a.363.363,0,0,1,.26-.11.384.384,0,0,1,.34.24c.07.15.16.58-.45,1.29a17.828,17.828,0,0,1-13.83,6.79h0Z" fill="#fff"/>
</svg>
