<svg id="Livello_2_copia" data-name="Livello 2 copia" xmlns="http://www.w3.org/2000/svg" width="38.27" height="38.27" viewBox="0 0 38.27 38.27">
  <path id="Path_15" data-name="Path 15" d="M32.6,0H5.67L0,5.67V32.6l5.67,5.67H32.6l5.67-5.67V5.67ZM1.8,31.27c.74-1.16,1.61-2.55,2.36-3.75,1.07,2.41,4.6,4.02,4.62,4.03,2.94,1.2,7.72,4.48,8.25,5.34Zm10.88.31a20.467,20.467,0,0,0-1.95-1.21,8.906,8.906,0,0,1-2.04-6.28,17.836,17.836,0,0,1,3.41,2.2,19.248,19.248,0,0,1,6.48,10.39,22.992,22.992,0,0,0-5.9-5.11Zm6.47-14.42h-.17a12.572,12.572,0,0,1-3.18-3.39c-.27-.37-1.47-2.37-1.88-1.89-.08.09.63,2.06.56,2.15-1.08,1.4-2.26,2.85-3.37,4.22-1.2,1.47-2.41,2.96-3.7,4.29a4.7,4.7,0,0,0-.2,2.58,10.245,10.245,0,0,0,1.3,4.23,10.53,10.53,0,0,1-4.09-6.47c-.24-1.17,6.24-13.71,7.51-16.79A7.923,7.923,0,0,1,19.11,1.4h0a7.94,7.94,0,0,1,7.18,4.69c1.27,3.09,7.75,15.63,7.51,16.79a10.487,10.487,0,0,1-4.09,6.47,10.245,10.245,0,0,0,1.3-4.23,4.79,4.79,0,0,0-.2-2.58c-1.29-1.32-2.5-2.82-3.7-4.29-1.11-1.37-2.29-2.82-3.37-4.22-.07-.09.63-2.06.56-2.15-.41-.48-1.6,1.52-1.88,1.89a12.427,12.427,0,0,1-3.18,3.39h-.13Zm.54,19.52a19.306,19.306,0,0,1,6.48-10.39,17.236,17.236,0,0,1,3.41-2.2,8.906,8.906,0,0,1-2.04,6.28,20.467,20.467,0,0,0-1.95,1.21,22.613,22.613,0,0,0-5.9,5.11Zm1.55.21c.54-.86,5.31-4.14,8.25-5.34.02-.01,3.55-1.61,4.62-4.03.75,1.2,1.63,2.59,2.36,3.75L21.24,36.89Z" fill="#4a92a0"/>
</svg>
