<?xml version="1.0" encoding="UTF-8"?>
<svg id="Social" data-name="Social" xmlns="http://www.w3.org/2000/svg" width="38.27" height="38.27" viewBox="0 0 38.27 38.27">
  <path d="m5.82,21.835c1.731.776,3.767.06,4.63-1.63-1.731-.776-3.767-.06-4.63,1.63Z" style="fill: #869169;"/>
  <path d="m11.85,28.715c2.299.433,4.654-.399,6.17-2.18-1.09.136-2.163.387-3.2.75-1.039.369-2.034.848-2.97,1.43Z" style="fill: #869169;"/>
  <path d="m14.4,26.065l-.01.01c.64-.27.81-1.64,1.06-2.29-.59-.34-.95.44-1.58.71-.009.005-.02.008-.03.01-.01,0-.02.01-.03.01-.65.18-1.43-.2-1.67.43.6.35,1.59,1.31,2.26,1.12Z" style="fill: #869169;"/>
  <path d="m23.25,19.705l-.01-.02c.28.63.52,2,1.17,2.23.67.16,1.62-.85,2.2-1.23-.27-.62-1.03-.2-1.69-.35h-.06c-.64-.24-1.05-1-1.61-.63Z" style="fill: #869169;"/>
  <path d="m32.6,0H5.67L0,5.67v26.93l5.67,5.67h26.93l5.67-5.67V5.67l-5.67-5.67Zm-12.43,27.745c-.763,1.767-2.042,3.262-3.67,4.29h-.06c-1.99.61-9.87-1.09-12.49-8.52l-2.65-7.5c3.026-.218,6.009-.84,8.87-1.85,2.334-.83,4.573-1.906,6.68-3.21l-.75,2.54c-.375,1.259-.563,2.566-.56,3.88-.775.317-1.411.903-1.79,1.65.608.284,1.287.381,1.95.28.493,3.237,2.073,6.21,4.48,8.43l-.01.01Zm16.77-16.55s-.002,0-.003,0l-2.257,7.62c-2.24,7.55-10.02,9.67-12.04,9.16l-.06-.02c-1.97-.67-7.35-6.68-5.12-14.23l2.26-7.63c2.58,1.598,5.361,2.846,8.27,3.71,2.907.86,5.916,1.328,8.947,1.39l.003-.01v.01Z" style="fill: #869169;"/>
  <path d="m20.81,22.555c1.61,1.699,4.006,2.405,6.28,1.85-.963-.535-1.983-.961-3.04-1.27-1.055-.312-2.142-.506-3.24-.58Z" style="fill: #869169;"/>
  <path d="m24.67,14.845c-.948-1.644-3.017-2.259-4.71-1.4.948,1.644,3.017,2.259,4.71,1.4Z" style="fill: #869169;"/>
  <path d="m32.75,17.235c-.454-.796-1.2-1.384-2.08-1.64-.875-.263-1.817-.177-2.63.24.948,1.644,3.017,2.259,4.71,1.4Z" style="fill: #869169;"/>
</svg>