<svg xmlns="http://www.w3.org/2000/svg" xmlns:xlink="http://www.w3.org/1999/xlink" width="15.874" height="13.606" viewBox="0 0 15.874 13.606">
  <defs>
    <clipPath id="clip-path">
      <rect id="Rectangle_5" data-name="Rectangle 5" width="15.874" height="13.606" transform="translate(9 7)" fill="none"/>
    </clipPath>
  </defs>
  <g id="Vector_Smart_Object1" data-name="Vector Smart Object1" transform="translate(-9 -7)" clip-path="url(#clip-path)">
    <g id="Group_12" data-name="Group 12">
      <path id="Path_15" data-name="Path 15" d="M13.972,13.225a.479.479,0,0,0,.089-.114.5.5,0,0,0,.048-.136l5.073,2.783a.494.494,0,0,0-.089.113.5.5,0,0,0-.049.137l-5.072-2.783Z" fill="#d2232a"/>
      <path id="Path_16" data-name="Path 16" d="M19.325,16.488a.427.427,0,0,1-.221-.368.4.4,0,0,1,0-.077.44.44,0,0,1,.046-.138.4.4,0,0,1,.092-.112.343.343,0,0,1,.062-.046.428.428,0,1,1,.016.741" fill="#d2232a"/>
      <path id="Path_17" data-name="Path 17" d="M13.844,13.235a.429.429,0,1,1,.2-.374.409.409,0,0,1-.005.078.435.435,0,0,1-.046.137.407.407,0,0,1-.092.113.4.4,0,0,1-.062.046" fill="#d2232a"/>
      <path id="Path_18" data-name="Path 18" d="M18.83,16.937l.023.014a.376.376,0,0,1-.384.645l-.022-.014a.372.372,0,0,1-.169-.278l.016.011.013.008a.214.214,0,0,0,.219-.368l-.04-.026a.377.377,0,0,1,.344.008" fill="#d2232a"/>
      <path id="Path_19" data-name="Path 19" d="M18.358,16.932l.031.02.031.02.068.043a.143.143,0,0,1-.146.246l-.008,0-.055-.035-.034-.022-.032-.021L13.69,14.269a.585.585,0,0,0,.11-.122.5.5,0,0,0,.054-.112l4.5,2.9Z" fill="#d2232a"/>
      <path id="Path_20" data-name="Path 20" d="M12.927,13.586a.278.278,0,0,1,.021-.027.481.481,0,0,1,.617-.135l.029.017a.484.484,0,0,1,.216.481.491.491,0,0,1-.019.073.461.461,0,0,1-.052.113.481.481,0,0,1-.112.121.459.459,0,0,1-.066.042.484.484,0,0,1-.46,0l-.029-.018a.483.483,0,0,1-.187-.585.529.529,0,0,1,.042-.082" fill="#d2232a"/>
      <path id="Path_21" data-name="Path 21" d="M17.429,17.79l-.052-.039a.323.323,0,0,1,.219.033.226.226,0,0,1,.038.025.322.322,0,0,1-.347.54.226.226,0,0,1-.038-.025.321.321,0,0,1-.127-.229l.051.038a.133.133,0,0,0,.025.016.214.214,0,0,0,.231-.359" fill="#d2232a"/>
      <path id="Path_22" data-name="Path 22" d="M17.093,17.985l-.031-.023-3.245-2.423a.656.656,0,0,0,.1-.1.679.679,0,0,0,.071-.125l3.244,2.422.032.024.031.023.09.067a.143.143,0,0,1-.154.24l-.017-.011-.09-.067-.032-.024Z" fill="#d2232a"/>
      <path id="Path_23" data-name="Path 23" d="M13,14.752a.537.537,0,0,1,.687-.15.629.629,0,0,1,.064.041.538.538,0,0,1,.2.553.667.667,0,0,1-.023.072.555.555,0,0,1-.069.126.518.518,0,0,1-.1.1.626.626,0,0,1-.062.043.538.538,0,0,1-.523.006.616.616,0,0,1-.063-.041A.536.536,0,0,1,13,14.752" fill="#d2232a"/>
      <path id="Path_24" data-name="Path 24" d="M16,18.265l-.042-.036a.273.273,0,0,1,.111.032.2.2,0,0,1,.046.032.268.268,0,0,1-.3.438.237.237,0,0,1-.046-.032.264.264,0,0,1-.086-.145l.041.035a.278.278,0,0,0,.037.026.214.214,0,0,0,.243-.35" fill="#d2232a"/>
      <path id="Path_25" data-name="Path 25" d="M15.645,18.43l-.031-.026-1.4-1.207a.639.639,0,0,0,.106-.1.625.625,0,0,0,.081-.119l1.4,1.206.03.025.031.027.092.079a.143.143,0,0,1-.162.233.1.1,0,0,1-.025-.017l-.091-.079-.031-.026Z" fill="#d2232a"/>
      <path id="Path_26" data-name="Path 26" d="M13.373,16.284a.591.591,0,0,1,.731-.133.683.683,0,0,1,.1.071.589.589,0,0,1,.171.644.676.676,0,0,1-.029.069.62.62,0,0,1-.08.119.576.576,0,0,1-.108.1.673.673,0,0,1-.063.04.589.589,0,0,1-.559,0,.583.583,0,0,1-.1-.071.589.589,0,0,1-.062-.832" fill="#d2232a"/>
      <path id="Path_27" data-name="Path 27" d="M12.3,19.44a.268.268,0,0,1,.207-.492.338.338,0,0,1,.052.022.259.259,0,0,1,.085.076l-.058-.018a.214.214,0,0,0-.165.393.209.209,0,0,0,.041.017l.059.018a.27.27,0,0,1-.169.006.3.3,0,0,1-.052-.022" fill="#d2232a"/>
      <path id="Path_28" data-name="Path 28" d="M12.644,19.418l-.039-.012-.122-.036a.111.111,0,0,1-.027-.012.143.143,0,0,1,.109-.262l.123.037.039.012.037.011,1.768.532a.7.7,0,0,0-.056.132.639.639,0,0,0-.024.142l-1.769-.532-.039-.012Z" fill="#d2232a"/>
      <path id="Path_29" data-name="Path 29" d="M14.939,20.577a.549.549,0,0,1-.114-.048.587.587,0,0,1-.3-.47.47.47,0,0,1,0-.075.583.583,0,0,1,.022-.142.6.6,0,0,1,.058-.132.516.516,0,0,1,.043-.061.589.589,0,0,1,.634-.2.527.527,0,0,1,.114.048.59.59,0,0,1-.454,1.082" fill="#d2232a"/>
      <path id="Path_30" data-name="Path 30" d="M10.759,20.035a.3.3,0,0,1-.041-.019.322.322,0,0,1,.269-.583.3.3,0,0,1,.041.019.311.311,0,0,1,.145.167l-.063-.024a.214.214,0,0,0-.276.124.212.212,0,0,0,.1.263.169.169,0,0,0,.027.013l.063.024a.322.322,0,0,1-.262.016" fill="#d2232a"/>
      <path id="Path_31" data-name="Path 31" d="M11.129,19.984l-.038-.014-.107-.041a.111.111,0,0,1-.019-.009.143.143,0,0,1,.12-.258l.108.041.036.014.037.014,3.786,1.434a.57.57,0,0,0-.067.127.628.628,0,0,0-.033.141L11.165,20l-.036-.014Z" fill="#d2232a"/>
      <path id="Path_32" data-name="Path 32" d="M9.63,20.652l-.024-.012a.375.375,0,0,1,.338-.67l.024.012a.375.375,0,0,1,.188.263L10.1,20.22a.214.214,0,0,0-.192.382l.013.007.054.025a.376.376,0,0,1-.347.018" fill="#d2232a"/>
      <path id="Path_33" data-name="Path 33" d="M14.985,22.864l-4.874-2.247-.034-.016-.034-.015-.09-.042-.009,0a.143.143,0,0,1,.129-.255l.09.042.034.015.033.016L15.1,22.6a.526.526,0,0,0-.077.122.533.533,0,0,0-.041.138" fill="#d2232a"/>
      <path id="Path_34" data-name="Path 34" d="M14.891,18.91a.644.644,0,1,1-.255-.874.643.643,0,0,1,.255.874" fill="#d2232a"/>
      <path id="Path_35" data-name="Path 35" d="M9.354,20.649a.429.429,0,0,1,.221.367.409.409,0,0,1-.005.078.44.44,0,0,1-.046.138.4.4,0,0,1-.092.112.469.469,0,0,1-.063.047.429.429,0,1,1-.015-.742" fill="#d2232a"/>
      <path id="Path_36" data-name="Path 36" d="M18.44,5.08a.479.479,0,0,0,.089-.114.5.5,0,0,0,.048-.136L23.65,7.613a.494.494,0,0,0-.089.113.5.5,0,0,0-.049.137Z" fill="#d2232a"/>
      <path id="Path_37" data-name="Path 37" d="M23.793,8.343a.427.427,0,0,1-.221-.368.4.4,0,0,1,0-.077.44.44,0,0,1,.046-.138.4.4,0,0,1,.092-.112.343.343,0,0,1,.062-.046.428.428,0,1,1,.016.741" fill="#d2232a"/>
      <path id="Path_38" data-name="Path 38" d="M23.3,8.792l.023.014a.376.376,0,0,1-.384.645l-.023-.014a.373.373,0,0,1-.168-.278l.016.011.013.008a.214.214,0,0,0,.218-.368l-.039-.026a.377.377,0,0,1,.344.008" fill="#d2232a"/>
      <path id="Path_39" data-name="Path 39" d="M22.826,8.787l.031.02.031.02.068.043a.143.143,0,0,1-.146.246L22.8,9.111l-.054-.035-.034-.022-.032-.021L18.158,6.124A.585.585,0,0,0,18.268,6a.5.5,0,0,0,.054-.112l4.5,2.9Z" fill="#d2232a"/>
      <path id="Path_40" data-name="Path 40" d="M21.9,9.645l-.052-.039a.323.323,0,0,1,.219.033.226.226,0,0,1,.038.025.322.322,0,0,1-.347.54.226.226,0,0,1-.038-.025.321.321,0,0,1-.127-.229l.051.038a.133.133,0,0,0,.025.016.214.214,0,0,0,.231-.359" fill="#d2232a"/>
      <path id="Path_41" data-name="Path 41" d="M21.562,9.84l-.031-.023L18.286,7.394a.656.656,0,0,0,.1-.1.679.679,0,0,0,.071-.125L21.7,9.588l.032.024.031.023.09.067a.143.143,0,0,1-.154.24l-.017-.011-.09-.067-.032-.024Z" fill="#d2232a"/>
      <path id="Path_42" data-name="Path 42" d="M17.47,6.606a.537.537,0,0,1,.687-.15.629.629,0,0,1,.064.041.538.538,0,0,1,.2.553.667.667,0,0,1-.023.072.555.555,0,0,1-.069.126.518.518,0,0,1-.1.1.626.626,0,0,1-.062.043.538.538,0,0,1-.523.006.616.616,0,0,1-.063-.041.536.536,0,0,1-.109-.751" fill="#d2232a"/>
      <path id="Path_43" data-name="Path 43" d="M20.469,10.12l-.042-.036a.273.273,0,0,1,.111.032.2.2,0,0,1,.046.032.268.268,0,0,1-.3.438.237.237,0,0,1-.046-.032.264.264,0,0,1-.086-.145l.041.035a.233.233,0,0,0,.038.026.214.214,0,0,0,.242-.35" fill="#d2232a"/>
      <path id="Path_44" data-name="Path 44" d="M20.114,10.285l-.031-.026-1.4-1.207a.639.639,0,0,0,.106-.1.625.625,0,0,0,.081-.119l1.4,1.206.03.025.031.027.092.079a.143.143,0,0,1-.162.233.1.1,0,0,1-.025-.017l-.091-.079Z" fill="#d2232a"/>
      <path id="Path_45" data-name="Path 45" d="M17.842,8.139a.591.591,0,0,1,.731-.133.683.683,0,0,1,.1.071.589.589,0,0,1,.171.644.676.676,0,0,1-.029.069.62.62,0,0,1-.08.119.576.576,0,0,1-.108.1.673.673,0,0,1-.063.04.589.589,0,0,1-.559,0,.583.583,0,0,1-.1-.071.589.589,0,0,1-.062-.832" fill="#d2232a"/>
      <path id="Path_46" data-name="Path 46" d="M16.768,11.3a.268.268,0,0,1,.207-.492.291.291,0,0,1,.051.022.253.253,0,0,1,.086.076l-.058-.018a.214.214,0,0,0-.165.393.186.186,0,0,0,.041.017l.059.018a.27.27,0,0,1-.169.006.3.3,0,0,1-.052-.022" fill="#d2232a"/>
      <path id="Path_47" data-name="Path 47" d="M17.112,11.273l-.039-.012-.122-.036a.111.111,0,0,1-.027-.012.143.143,0,0,1,.109-.262l.123.037.039.012.037.011L19,11.543a.7.7,0,0,0-.056.132.639.639,0,0,0-.024.142l-1.769-.532-.039-.012Z" fill="#d2232a"/>
      <path id="Path_48" data-name="Path 48" d="M19.408,12.431a.549.549,0,0,1-.114-.048.587.587,0,0,1-.3-.47.469.469,0,0,1,0-.075.583.583,0,0,1,.022-.142.6.6,0,0,1,.058-.132.516.516,0,0,1,.043-.061.589.589,0,0,1,.634-.2.527.527,0,0,1,.114.048.59.59,0,0,1-.454,1.082" fill="#d2232a"/>
      <path id="Path_49" data-name="Path 49" d="M15.228,11.89a.305.305,0,0,1-.041-.019.322.322,0,0,1,.269-.583.305.305,0,0,1,.041.019.311.311,0,0,1,.145.167l-.063-.024a.214.214,0,0,0-.18.387l.028.013.062.024a.32.32,0,0,1-.261.016" fill="#d2232a"/>
      <path id="Path_50" data-name="Path 50" d="M15.6,11.839l-.038-.014-.107-.041a.111.111,0,0,1-.019-.009.143.143,0,0,1,.12-.258l.108.041.036.014.037.014,3.786,1.434a.57.57,0,0,0-.067.127.628.628,0,0,0-.033.141l-3.787-1.435-.036-.014Z" fill="#d2232a"/>
      <path id="Path_51" data-name="Path 51" d="M19.763,13.832a.537.537,0,0,1-.276-.444.626.626,0,0,1,0-.075.54.54,0,0,1,.031-.141.519.519,0,0,1,.069-.127.536.536,0,0,1,.623-.185.472.472,0,0,1,.068.032.537.537,0,0,1-.448.972.542.542,0,0,1-.069-.032" fill="#d2232a"/>
      <path id="Path_52" data-name="Path 52" d="M14.1,12.506l-.024-.012a.375.375,0,0,1,.338-.67l.024.012a.375.375,0,0,1,.188.263l-.054-.025a.214.214,0,0,0-.193.382l.014.007.054.025a.376.376,0,0,1-.347.018" fill="#d2232a"/>
      <path id="Path_53" data-name="Path 53" d="M19.453,14.718l-4.874-2.247-.034-.016-.034-.015-.09-.042-.009,0a.143.143,0,0,1,.129-.255l.09.042.034.015.033.016,4.873,2.246a.526.526,0,0,0-.077.122.533.533,0,0,0-.041.138" fill="#d2232a"/>
      <path id="Path_54" data-name="Path 54" d="M19.8,15.251l-.031-.015a.486.486,0,0,1-.248-.409.662.662,0,0,1,0-.077.514.514,0,0,1,.039-.14.515.515,0,0,1,.137-.172.481.481,0,0,1,.5-.064l.031.015a.483.483,0,0,1-.435.862" fill="#d2232a"/>
      <path id="Path_55" data-name="Path 55" d="M19.359,10.765a.644.644,0,1,1-.255-.874.643.643,0,0,1,.255.874" fill="#d2232a"/>
      <path id="Path_56" data-name="Path 56" d="M24.263,7.105l-.031-.015a.486.486,0,0,1-.248-.409.662.662,0,0,1,0-.077.514.514,0,0,1,.039-.14.515.515,0,0,1,.137-.172.481.481,0,0,1,.5-.064l.031.015a.483.483,0,0,1-.435.862" fill="#d2232a"/>
    </g>
  </g>
</svg>
