<svg xmlns="http://www.w3.org/2000/svg" width="32.273" height="32.28" viewBox="0 0 32.28 32.28">
  <g id="search" transform="translate(0.003)">
    <path id="Path_15" data-name="Path 15" d="M27.9,11.54a7.159,7.159,0,0,1-7.16,7.16" fill="none" stroke="#626b71" stroke-linecap="round" stroke-miterlimit="10" stroke-width="1.417"/>
    <path id="Path_16" data-name="Path 16" d="M20.74,0A11.557,11.557,0,0,0,9.2,11.54a11.44,11.44,0,0,0,2.45,7.08L9.6,20.68a2.824,2.824,0,0,0-2.73.72L.83,27.44a2.832,2.832,0,1,0,4,4.01l6.04-6.04a2.824,2.824,0,0,0,.72-2.73l2.06-2.06A11.529,11.529,0,1,0,20.74,0Zm0,20.24a8.7,8.7,0,1,1,8.7-8.7A8.706,8.706,0,0,1,20.74,20.24Z" fill="#626b71"/>
  </g>
</svg>
