<svg height="27.266" viewBox="0 0 29.663 27.266" width="29.663" xmlns="http://www.w3.org/2000/svg">
    <path d="M7.564,17q4.844-8.41,9.7-16.814c.035-.06.112-.1.223-.185.181.283.36.543.519.815.844,1.458,1.675,2.917,2.529,4.368a.76.76,0,0,1-.046.849c-.582,1-1.169,1.993-1.748,2.994-1.447,2.507-2.884,5.017-4.343,7.514-.437.749-.245.7-1.187.7H8.131c-.185,0-.369-.013-.558-.02-.005-.112-.03-.179-.007-.22M0,24.231a3.688,3.688,0,0,1,.151-.344c.914-1.591,1.841-3.173,2.738-4.774a.851.851,0,0,1,.86-.491q6.162.019,12.324,0a.8.8,0,0,1,.8.4c.981,1.724,1.971,3.443,2.983,5.211-.534.112-19.355.108-19.857,0m29.357,3.025c-1.9.005-3.806,0-5.709.008a.613.613,0,0,1-.6-.347c-.59-1.035-1.2-2.059-1.8-3.09Q20.146,21.91,19.04,19.99C18.294,18.7,17.555,17.4,16.8,16.107a.822.822,0,0,1,.029-.944c.892-1.516,1.755-3.052,2.631-4.578.085-.147.186-.283.292-.442a1.113,1.113,0,0,1,.163.041.2.2,0,0,1,.091.066q4.823,8.358,9.642,16.719c.025.043.011.108.017.2a1.157,1.157,0,0,1-.305.086"
        fill="#c4091e"
        id="Abstergo" />
</svg>
