<svg xmlns="http://www.w3.org/2000/svg" width="35.754" height="26.139" viewBox="0 0 35.754 26.139">
  <path id="Social" d="M18.938,21.7a14.441,14.441,0,0,1-4.491-8.458,3.5,3.5,0,0,1-1.957-.278,3.511,3.511,0,0,1,1.8-1.656,13.5,13.5,0,0,1,.563-3.893l.753-2.552A35.51,35.51,0,0,1,8.9,8.093,34.124,34.124,0,0,1,0,9.95l2.655,7.526c2.631,7.453,10.54,9.164,12.539,8.548v0a.249.249,0,0,0,.03-.013.108.108,0,0,0,.031-.008v0c.912-.364,2.509-1.954,3.682-4.3Zm-6.409-3.231v.007l.029-.014c.01,0,.021,0,.031-.008V18.45c.625-.261,1-1.053,1.585-.709-.246.647-.42,2.028-1.06,2.294h0c-.664.194-1.667-.771-2.264-1.121.242-.634,1.025-.253,1.678-.442M4.517,15.781a3.58,3.58,0,0,1,4.648-1.64,3.579,3.579,0,0,1-4.648,1.64m6.053,6.9,0,0v0h0A15.158,15.158,0,0,1,16.759,20.5a6.529,6.529,0,0,1-6.189,2.184m16.2-18.961A34.139,34.139,0,0,1,18.47,0L16.206,7.655c-2.24,7.579,3.161,13.6,5.142,14.278a.127.127,0,0,1,.031.008l.031.011v0c2.028.512,9.838-1.608,12.079-9.187l2.263-7.654a34.112,34.112,0,0,1-8.986-1.39M23.653,14.263c.01,0,.019.013.03.013v-.007c.661.154,1.424-.269,1.7.355-.579.381-1.529,1.4-2.2,1.237-.652-.232-.9-1.6-1.177-2.235h0c.57-.374.98.395,1.62.626v.006c.01.006.022,0,.032.006m-4.945-6.89a3.578,3.578,0,0,1,4.725,1.4h0v0a3.578,3.578,0,0,1-4.725-1.4m.854,9.136a15.132,15.132,0,0,1,6.3,1.861,6.529,6.529,0,0,1-6.3-1.861M26.815,9.77a3.529,3.529,0,0,1,2.642-.245l0,0a3.526,3.526,0,0,1,2.08,1.641,3.579,3.579,0,0,1-4.727-1.4" fill="#777f55"/>
</svg>
