<svg height="60" id="SocialCurve" viewBox="0 0 60 60" width="60"
    xmlns="http://www.w3.org/2000/svg">
    <path d="M16.391,31.673A5.591,5.591,0,0,1,9.13,34.235a5.593,5.593,0,0,1,7.261-2.562m2.189,13.338A10.2,10.2,0,0,0,28.255,41.6a23.692,23.692,0,0,0-9.675,3.415m3.981-4.133c1-.415,1.272-2.573,1.656-3.584-.919-.538-1.5.7-2.476,1.107l0,.011c-.016.006-.033.006-.049.013s-.03.016-.045.022l0-.011c-1.021.295-2.244-.3-2.622.691.933.547,2.5,2.054,3.537,1.751M36.444,30.867c.436.991.82,3.13,1.839,3.493,1.054.249,2.538-1.337,3.443-1.932-.43-.975-1.621-.314-2.654-.555l0,.011c-.017,0-.031-.016-.047-.02s-.034,0-.05-.009l0-.009c-1-.361-1.64-1.563-2.531-.978M60,8.888V51.11L51.11,60H8.888L0,51.11V8.888L8.888,0H51.11L60,8.888m-28.341,34.6a22.56,22.56,0,0,1-7.016-13.214,5.477,5.477,0,0,1-3.057-.434A5.487,5.487,0,0,1,24.4,27.253a21.1,21.1,0,0,1,.88-6.082l1.177-3.987a55.463,55.463,0,0,1-10.477,5.041,53.292,53.292,0,0,1-13.907,2.9L6.221,36.883C10.331,48.526,22.687,51.2,25.811,50.237l0,.006a.426.426,0,0,0,.047-.02c.016,0,.034-.008.049-.013l0-.006c1.425-.568,3.92-3.053,5.753-6.715m26.27-25.927A53.277,53.277,0,0,1,43.891,15.39,53.343,53.343,0,0,1,30.928,9.581l-3.536,11.96c-3.5,11.841,4.939,21.254,8.034,22.306l0,0c.014,0,.033.008.049.013l.049.017,0-.006c3.169.8,15.37-2.512,18.87-14.352ZM32.634,35.373a10.2,10.2,0,0,0,9.84,2.908,23.645,23.645,0,0,0-9.84-2.908m6.05-12.087A5.59,5.59,0,0,0,31.3,21.1a5.59,5.59,0,0,0,7.383,2.183m9.41,1.179a5.513,5.513,0,0,0-4.128.383,5.591,5.591,0,0,0,7.385,2.183A5.509,5.509,0,0,0,48.1,24.465" data-name="SocialCurve"
        fill="#777f55"
        id="SocialCurve-2" />
</svg>
