<svg xmlns="http://www.w3.org/2000/svg" width="33.885" height="34.702" viewBox="0 0 33.885 34.702">
  <path id="Stealth" d="M0,29.21c.719-1.131,1.575-2.487,2.307-3.663C3.348,27.9,6.8,29.474,6.821,29.483c2.876,1.177,7.543,4.38,8.065,5.22Zm10.636.3a20.519,20.519,0,0,0-1.908-1.184,8.73,8.73,0,0,1-1.995-6.14,17.132,17.132,0,0,1,3.328,2.155A18.848,18.848,0,0,1,16.4,34.5a22.186,22.186,0,0,0-5.764-4.987m6.322-14.094H16.8A12.244,12.244,0,0,1,13.7,12.1c-.265-.36-1.434-2.315-1.833-1.845-.074.088.614,2.01.544,2.1C11.35,13.721,10.2,15.139,9.115,16.48c-1.175,1.434-2.358,2.9-3.616,4.188a4.665,4.665,0,0,0-.2,2.527,9.976,9.976,0,0,0,1.269,4.131A10.272,10.272,0,0,1,2.581,21C2.348,19.862,8.676,7.607,9.92,4.588A7.755,7.755,0,0,1,16.936,0h.015a7.759,7.759,0,0,1,7.019,4.589C25.213,7.608,31.542,19.862,31.308,21a10.268,10.268,0,0,1-3.993,6.321,9.959,9.959,0,0,0,1.27-4.136,4.665,4.665,0,0,0-.2-2.527c-1.256-1.292-2.439-2.752-3.616-4.188-1.086-1.341-2.235-2.759-3.291-4.124-.071-.091.618-2.014.542-2.1-.4-.469-1.568,1.486-1.833,1.845a12.233,12.233,0,0,1-3.108,3.318h-.125M17.487,34.5a18.84,18.84,0,0,1,6.339-10.153,17.056,17.056,0,0,1,3.328-2.155,8.73,8.73,0,0,1-1.995,6.14,20.5,20.5,0,0,0-1.907,1.184A22.192,22.192,0,0,0,17.487,34.5M19,34.7c.524-.84,5.19-4.043,8.065-5.22.021-.011,3.472-1.578,4.515-3.936.735,1.176,1.589,2.532,2.307,3.663Z" fill="#39818f"/>
</svg>
