<svg height="60" id="StealthCurve" viewBox="0 0 60 60" width="60"
    xmlns="http://www.w3.org/2000/svg">
    <path d="M51.112,0H8.89L0,8.888V51.11L8.89,60H51.112L60,51.11V8.888L51.112,0M2.821,49.023c1.154-1.814,2.526-3.99,3.7-5.876,1.671,3.782,7.206,6.3,7.242,6.314,4.613,1.888,12.1,7.026,12.937,8.373Zm17.062.481a33.026,33.026,0,0,0-3.061-1.9,14,14,0,0,1-3.2-9.849,27.451,27.451,0,0,1,5.339,3.457A30.232,30.232,0,0,1,29.13,57.509c-2.2-3.128-6.079-5.9-9.247-8M30.024,26.9h-.047c-.094,0-.179,0-.2,0-1.946-1.141-3.62-3.468-4.987-5.323-.425-.577-2.3-3.713-2.941-2.96-.119.141.985,3.225.872,3.371-1.693,2.189-3.539,4.464-5.279,6.615-1.885,2.3-3.783,4.646-5.8,6.718a7.488,7.488,0,0,0-.315,4.053A16,16,0,0,0,13.362,46a16.475,16.475,0,0,1-6.4-10.141c-.375-1.831,9.777-21.489,11.772-26.333A12.44,12.44,0,0,1,29.989,2.167v0l.011,0,.013,0v0A12.446,12.446,0,0,1,41.273,9.528c1.993,4.843,12.145,24.5,11.77,26.333A16.468,16.468,0,0,1,46.638,46a15.978,15.978,0,0,0,2.037-6.634,7.488,7.488,0,0,0-.315-4.053c-2.015-2.073-3.913-4.415-5.8-6.718-1.742-2.151-3.586-4.426-5.279-6.615-.114-.146.991-3.23.87-3.371-.641-.753-2.516,2.383-2.941,2.96-1.366,1.855-3.04,4.182-4.986,5.323-.024,0-.108,0-.2,0m.848,30.611A30.223,30.223,0,0,1,41.04,41.217a27.4,27.4,0,0,1,5.339-3.457,14,14,0,0,1-3.2,9.849,33,33,0,0,0-3.059,1.9c-3.17,2.1-7.049,4.876-9.247,8m2.424.325c.84-1.347,8.325-6.485,12.938-8.373.034-.017,5.569-2.532,7.242-6.314,1.179,1.886,2.549,4.062,3.7,5.876Z" data-name="StealthCurve"
        fill="#39818f"
        id="StealthCurve-2" />
</svg>
