<svg xmlns="http://www.w3.org/2000/svg" width="33.369" height="28.9" viewBox="0 0 33.369 28.9">
  <path id="Wits" d="M16.685,0l6.156,10.664a19.663,19.663,0,0,0-12.314,0ZM0,28.9l4.525-7.84a19.5,19.5,0,0,0,24.318,0l4.525,7.84ZM29.728,16.882a17.753,17.753,0,0,0-11.291-5.545.7.7,0,0,0-.1-.005c-.546-.049-1.1-.083-1.65-.083s-1.1.035-1.65.083a.7.7,0,0,1-.1.005A17.753,17.753,0,0,0,3.639,16.882l-.581.614.58.614q.366.388.754.754a17.923,17.923,0,0,0,25.336-.754l.58-.614ZM16.681,14.021a2,2,0,1,1-2,2,2,2,0,0,1,2-2m.064,7.93h-.064l0,0A15.983,15.983,0,0,1,5.549,17.5c.258-.242.527-.458.794-.681a16.026,16.026,0,0,1,4.964-2.848,5.722,5.722,0,0,0,1.551,6.348,15.167,15.167,0,0,0,7.608.041,5.723,5.723,0,0,0,1.593-6.388,16.01,16.01,0,0,1,5.029,2.9c.246.207.5.4.733.628a15.979,15.979,0,0,1-11.075,4.455" fill="#c85622"/>
</svg>
