<svg height="60" id="WitsCurve" viewBox="0 0 60 60" width="60"
    xmlns="http://www.w3.org/2000/svg">
    <path d="M51.112,0H8.89L0,8.888V51.11L8.89,60H51.112L60,51.11V8.888L51.112,0M29.936,4.925l9.548,16.54a30.5,30.5,0,0,0-19.1,0ZM9.7,31.11a27.539,27.539,0,0,1,17.513-8.6c.053,0,.108,0,.161-.008.847-.075,1.7-.129,2.559-.129s1.712.053,2.559.129c.053,0,.107,0,.161.008a27.539,27.539,0,0,1,17.513,8.6l.9.952-.9.952a27.8,27.8,0,0,1-40.467,0l-.9-.952ZM4.056,49.752l7.019-12.161a30.244,30.244,0,0,0,37.72,0l7.019,12.161Zm25.88-10.776a24.793,24.793,0,0,1-17.273-6.914c.4-.376.818-.71,1.232-1.057a24.858,24.858,0,0,1,7.7-4.417A8.874,8.874,0,0,0,24,36.435a23.526,23.526,0,0,0,11.8.063,8.878,8.878,0,0,0,2.471-9.909,24.847,24.847,0,0,1,7.8,4.5c.381.321.773.626,1.137.974a24.787,24.787,0,0,1-17.178,6.91c-.033,0-.064,0-.1,0m0-12.3a3.1,3.1,0,1,1-3.1,3.1,3.1,3.1,0,0,1,3.1-3.1" data-name="WitsCurve"
        fill="#c85622"
        id="WitsCurve-2" />
</svg>
