<?xml version="1.0" encoding="utf-8"?>
<svg version="1.1" id="Crown" xmlns="http://www.w3.org/2000/svg" xmlns:xlink="http://www.w3.org/1999/xlink" x="0px" y="0px" viewBox="0 0 42.52 42.52" xml:space="preserve">
<path d="M38.64,15.84l-0.55-0.88l-0.77-0.31l-0.81,0.19l-0.68,0.66l-0.13,1.13l0.32,0.63l-4.92,2.72l-0.15-1.87l-0.47-0.16
	l-1.32,1.19l-0.78-4.73l0.73-0.31l0.47-0.69l-0.05-0.98l-0.55-0.88l-0.77-0.31l-0.81,0.19l-0.68,0.66l-0.13,1.13l0.4,0.8l-3.78,4.66
	l-1.6-3.05l-0.55-0.05l-1.76,3.09l-3.83-4.71l0.38-0.56l-0.05-0.98l-0.55-0.88l-0.77-0.31l-0.81,0.19l-0.68,0.66l-0.13,1.13
	l0.45,0.88l0.98,0.46l0.08-0.03l-0.73,4.45l-1.72-1.37l-0.47,0.16l-0.34,1.93L6.66,17.2l0.05-0.04l0.24-0.8l-0.34-0.92l-0.79-0.67
	L5,14.7l-0.72,0.42l-0.45,0.84l0.22,1.11l0.69,0.7l1.08,0.14l0.16-0.14l-0.03,0.06l1.87,7.13l0.59,0.97l-0.59,1.1v3.72l0.4,0.53
	h8.57h1.91h15.88l0.4-0.53v-3.72l-0.59-1.1l0.59-0.97l1.87-7.13l-0.01-0.02l0.3,0.14l1.09-0.45l0.47-0.69L38.64,15.84z M33.26,29.46
	l-0.11,0l-0.98-2l-0.44,2.01l-0.54,0l-0.99-2.01l-0.45,2.02l-0.53,0l-1-2.02l-0.45,2.03l-0.53,0l-1-2.03L25.8,29.5l-0.52,0
	l-1.01-2.04l-0.45,2.05l-0.51,0l-1.01-2.05l-0.46,2.06l-0.5,0l-1.02-2.07l-0.46,2.07l-0.49,0l-1.02-2.08l-0.46,2.08l-0.49-0.01
	l-1.02-2.08l-0.46,2.06l-0.51-0.01l-1.01-2.06l-0.45,2.04l-0.52-0.01l-1-2.04l-0.45,2.02l-0.53-0.01l-0.99-2.02l-0.44,2l-0.49-0.01
	v-2.98l0.05,0.17l6.8-0.3l5.55,0.3l5.64-0.45l5.7,0.41V29.46z M33.26,24.13v0.41l-0.46,0.51l-0.02,0l0.38-2.01l-1.11,1.47l0.06-0.95
	l-1.12,1.23l0.3,0.06l-2.84-0.37l-1.81,0.25l-0.07-0.53l-0.36,0.59l-0.16,0.02l-0.01-1.83l-0.81,1.65l-0.12-0.94l-0.84,1.37
	l-2.34,0.32l-3.36-0.3l-0.76-1.25l-0.13,1.06l-0.93-1.91l-0.01,1.78l-0.43-0.7l-0.1,0.8l-1.22-0.11l-3.17,0.27l-0.89-1.09l0.01,1.07
	l-1.19-1.76l0.24,1.77l-0.46-0.55v-0.34l-1.14-3.54l0.15-0.6l4.97,3.39l0.7-0.17l1.29-5.72l0.75,0.37l0.04-0.91l4.4,6.56l1.36-0.05
	l4.48-6.52l0.04,0.91l0.75-0.37l1.29,5.72l0.7,0.17l4.97-3.39l0.15,0.6L33.26,24.13z" fill="#FFFFFF"/>
</svg>
