<?xml version="1.0" encoding="utf-8"?>
<svg xmlns="http://www.w3.org/2000/svg" width="14.701" height="17.02" viewBox="0 0 14.701 17.02">
  <path id="Path_14" data-name="Path 14" d="M0,0-.461.328-.838.691l-.269.456-.338.4-.427.32-.256.46-.366.372-.328.4-.328.4-.3.42-.362.372-.3.425-.423.319-.312.413-.291.431-.394.346-.326.4L-6.229,7l-.287.435-.3.421-.206.408-.028.464.242.4.319.415.288.438.382.359.3.425.4.337.268.453.309.419.428.317.332.4.232.482.382.356.361.372.283.435.4.34.316.411.345.387.329.4.259.459.4.343.488.278.569.066.524-.3.239-.482.342-.4.391-.351.286-.439L2.7,14.66l.351-.383L3.4,13.89l.37-.368.341-.39.246-.47.388-.351.362-.37.271-.446.375-.362.374-.362.257-.462.358-.375L7.1,9.557l.29-.433.2-.408.056-.468-.281-.376-.257-.466-.32-.413-.395-.347-.378-.362-.267-.451-.377-.362L5.115,5.01l-.361-.375L4.4,4.252l-.342-.388-.312-.417-.4-.338-.334-.394-.336-.393-.342-.39-.32-.407L1.7,1.117,1.4.69,1.012.343.563.022Z" transform="translate(7.055)" fill="#2b2e34"/>
</svg>
