<?xml version="1.0" encoding="utf-8"?>
<svg version="1.1" id="Horse" xmlns="http://www.w3.org/2000/svg" xmlns:xlink="http://www.w3.org/1999/xlink" x="0px" y="0px" viewBox="0 0 42.52 42.52" xml:space="preserve">
<path d="M40.46,17.72l-0.66-1.71l0.39-2.36l-1.86,1.43l-3.25-2.28l-0.13,1.06l-1.21-0.45l-0.28,1.04l-1.24-0.42l-0.12,1.01
	l-1.39-0.54l-0.21,1.23l-1.23-0.55l-0.06,0.54l-1.24-1.13l-0.01-2.31l1.4-0.05l1.03-1.87l0.15-1.27l-1.74-1.4L25.64,8l-0.17,1.98
	l-5,0.21l-3.4-0.54l-0.32,0.55l-1.77,0.44l-0.12,0.61l-1.4-0.19l-0.3,0.62l-0.06,1.67l3.31,0.33l3.44-0.57l2.75-0.19l-3.06,2.05
	l-0.22,2.03l1.35,1.04l-4.73-0.91c0,0-4.5,1.97-4.56,2.16L5.5,18.31l-4.22,1.49l0,0.49l3.51,0.6L4.34,22.2l5.99-1.2l1.05,4.01
	l3.57,1.73l0.68,1.7l-1.23,1.94l0.55,0.54l5.1,1.48l0.07,1.49l2.11,0.93l-0.36-2.04l1.29,0.42l0.31,1.18l1.97-0.6l-1.85-1.5
	l-3.55-2.22l0.2-3.07l3.39,0.93l4.38-0.43l3.69,3.7l-2.34,0.92l-2.16-0.37l-0.45,1.47l2.71,0.07l3.9-0.93l0.25-1.43l-1.66-3.19
	l3.81,0.71l1.23,5.14l1.66,0.49l-1.66-7.09l-3.39-1.42l0.92-2.36l-0.31-1.77l1.37-2.11l3.3,2.74l0,1.19l1.64,0.27l0.68-1.39
	L40.46,17.72z M36.21,18.31l-1.24,0.05l-2.39,2.33l0.5,1.43L32,25.27l-1.56,1.85L27.39,24l0.05,1.47l-3.69,0.34l-4.09-0.96
	l-1.17-2.25l0.12,6.15l-2.57-4l-2.95-0.88l-0.8-2.9L16.05,19l5.3,1.39l1.88-0.38l1.05,0.81l-2.94,2.87l0.76,0.82l5.02-3.59
	l-1.1-1.47L28.17,19l5.27-2.91l3.09-0.6l2.26,1.27l1.08,4.69L36.21,18.31z" fill="#FFFFFF"/>
</svg>
