<?xml version="1.0" encoding="utf-8"?>
<svg version="1.1" id="Letter" xmlns="http://www.w3.org/2000/svg" xmlns:xlink="http://www.w3.org/1999/xlink" x="0px" y="0px" viewBox="0 0 42.52 42.52" xml:space="preserve">
<g>
	<path d="M23.11,18.23L22.09,18l-1.62,0.98l-0.71,1.22v0.92l1.42,1.29l1.7,0.44l1.32-1.12l0.23-1.86L23.11,18.23z M23.36,21.2
		l-0.79,0.67l-1.02-0.26l-0.85-0.77v-0.55l0.42-0.73l0.97-0.59l0.61,0.14l0.79,0.97L23.36,21.2z" fill="#FFFFFF"/>
	<path d="M35.9,17.34l-2.34-7.1l-1.7-0.99l-12.86,2.18L5.8,12.27L4.38,14.4L7.41,22l1.44,9.44l1.48,1.84l16.46-3.26l10.5-0.28
		l0.85-1.56L35.9,17.34z M7.07,13.45h11.67l5.68,0.21l-2.34-1.05l8.86-1.58l0.85,0.48L25.29,18l0.26-1.84l-1.85,0.87l-1.85-0.77
		l-2.09,1.17l-2.08-0.2l0.91,1.69L6.77,14.3L7.07,13.45z M24.88,19.75l-0.27,2.22l-1.57,1.33L21,22.79l-1.69-1.53v-1.09l0.84-1.46
		l1.93-1.17l1.22,0.28L24.88,19.75z M10.65,30.11l-1.11-5.72l1.08,0.34l-1.18-2.51L8.6,19.86l-0.92-1.73l-0.92-2.44l6.73,3.16
		l-0.69,0.69L14.68,20l-1.61,1.5l2.03,0.89l-1.44,1.69l1.02,0.31L10.65,30.11z M26.48,28.32l-4.69-0.24l0.61,1.14l-8.45,1.67
		l0.08-1.27l-1.42,0.59l5.54-8.57l0.78,1.2l-0.49,2.58l2.41-1.51l2.25,1.05l3.27,0.14l-1.94-1.34l1.19-0.76l2.09-0.03l-1.71-1.22
		l0.2-1.84l8.7,8.41H26.48z M30.05,22.35l0.8-0.73l-1.47-0.73l1.71-1.01l-1.96-0.95l1.01-1.1l-1.48-0.96l3.82-4.29l1.78,5.13
		l0.62,2.97l-0.65-0.2l2.1,6.68L30.05,22.35z" fill="#FFFFFF"/>
</g>
</svg>
