<svg xmlns="http://www.w3.org/2000/svg" width="161.433" height="15.316" viewBox="0 0 161.433 15.316">
  <path id="SkillNameBG" d="M0,0-.682,1.458l-.466,1.37L-2.289,4.036l-.06,1.472L-3.173,6.8l-.58,1.347-.742,1.309-.85,1.282-.907,1.272-.488,1.37-.446,1.346.825.319,2.066-.43L-2.233,15l2.058-.124,2.06.063L3.944,14.6,6,15.1l2.059-.534,2.052.3,2.052-.19L14.22,14.5l2.056.531,2.057.049,2.054-.464,2.057-.005,2.055.064,2.053-.037,2.055.28,2.055.132,2.052-.321,2.051-.068,2.053-.164,2.055.548,2.053-.075,2.05-.247,2.049.305,2.048-.4,2.049.352h2.051l2.055-.486,2.051.588,2.053-.253,2.053-.217,2.053.306,2.055-.4,2.052.036,2.052.39,2.052-.079,2.051-.1,2.053-.113,2.054-.176,2.052.3,2.051-.009,2.051.194,2.051-.5,2.052.252,2.053.366,2.054-.253,2.052-.222,2.051.012,2.051-.083,2.049.027,2.05.385,2.05-.258,2.051-.141,2.051.058,2.053.466,2.053-.049,2.051-.281,2.051.2,2.049.142,2.049-.443,2.048.1,2.048.338,2.048-.4,2.049.23,2.049-.149,2.05-.193,2.051.2,2.052-.164,2.052-.075,2.051.526,2.05-.331,2.049.361,2.048-.5,1.991.137.42-1.351,1.026-1.241.3-1.418.6-1.34L150.349,8l.919-1.265,1.006-1.243.067-1.47.91-1.263.457-1.372.539-1.144L152.47.08,150.42.026l-2.047.292L146.331.033l-2.045-.178-2.042.523L140.2.16l-2.04-.244-2.036.415L134.087-.1l-2.042.121-2.04-.034-2.042.388-2.039-.447L123.883,0l-2.039.27L119.806,0l-2.039-.2-2.04.263L113.69-.071l-2.035-.142-2.037.588-2.04-.153L105.541.206l-2.035-.245-2.033-.054L99.44.06,97.407.394,95.371-.05l-2.04.367L91.3.213,89.258.247,87.221.374,85.183.38,83.145-.17l-2.038.15L79.071-.044l-2.037.38L75,.411,72.959.3,70.921.186,68.885.2,66.849.338,64.813.061l-2.035-.1L60.741.2,58.7.162,56.666-.189,54.629.139l-2.036-.32L50.558.4H48.524L46.49.136,44.455-.117,42.42.324,40.384-.2,38.347.2,36.31-.153,34.273.053,32.239-.158,30.2-.216,28.172.407,26.139.326,24.106.262,22.073-.186l-2.033.5L18.007.3,15.972.128,13.937.022,11.9.228,9.864-.029,7.828.113,5.794.342,3.76-.158,1.728-.112" transform="translate(7.186 0.216)" fill="#000"/>
</svg>
