<?xml version="1.0" encoding="utf-8"?>
<svg version="1.1" id="Swords" xmlns="http://www.w3.org/2000/svg" xmlns:xlink="http://www.w3.org/1999/xlink" x="0px" y="0px" viewBox="0 0 42.5 42.5" xml:space="preserve">
	<g>
		<path d="M18.8,28.1l-0.5-0.4L18,27.3l0,0l3.4-3.4L20.5,23L20.4,23l-1-1l0.1-0.1L18.6,21l-3.4,3.4l-0.5-0.3l-0.3-0.5l-0.8-1.3
		l-0.5-0.5l-0.2,0L11.8,23l0,0.2l0.5,0.5l1.4,0.6l0.6,0.4l0.4,0.5l0.4,0.9l-0.1,0.1l0,0.2L14,27l-1,1.2l-0.8,0.6l0.1,0.1L12,29
		l-0.7,0.7l0,0.2l-0.2,0.1l-0.7,0.7l0.1,0.2l-0.1,0c0,0.1-0.5,0-0.5,0S9.2,31,9.2,31.1c0,0-0.6,0.6-0.6,0.6l-0.1,0.9l0.3,0.7L9,33.4
		l0.2,0.2l0.7,0.3l0.9,0c0,0,0.6-0.6,0.6-0.6s0.3-0.7,0.3-0.7s-0.1-0.5,0-0.5l-0.1-0.1l0.3,0.1l0.7-0.8l0.1-0.2l0.2-0.1l0.7-0.7
		l0-0.2l0.2,0l0.8-0.9l0.8-0.7l0.9-1l1.2,0.5l0.5,0.3l0.3,0.5l0.6,1.4l0.5,0.5l0.1,0l1.1-1.1l0-0.2l-0.5-0.5L18.8,28.1z M10.9,33
		c0,0-0.4,0.4-0.4,0.4l-0.6,0l-0.5-0.2L9.6,33l-0.4,0L9,32.5l0-0.6l0.3-0.2l0.5-0.1l0.4,0l0.1,0.2l0.4,0.2l0.2,0.4
		C11,32.5,11,33,10.9,33z M17.3,26.3l-0.3-0.8l-0.7-0.4l2.6-2.5l0.5,0.3l0.5,0.7L17.3,26.3z" fill="#FFFFFF"/>
		<path d="M34,31.6c0,0-0.6-0.6-0.6-0.6s-0.7-0.3-0.7-0.3s-0.5,0.1-0.5,0L32,30.9l0.1-0.3l-0.8-0.7l-0.2,0l-0.1-0.2l-0.7-0.7l-0.2,0
		l0-0.2L29.3,28l-0.7-0.8l-1-0.9l0.5-1.2l0.3-0.5l0.5-0.3l1.4-0.6l0.5-0.5l0-0.1l-1.1-1.1l-0.2,0l-0.5,0.5l-0.8,1.3l-0.4,0.5
		l-0.4,0.3l0,0l-15-15.1l-1-0.7L9.9,8.6L8.8,8.7L8.6,9.9l0.1,1.3l0.7,1l15.1,15.1l-0.3,0.5l-0.5,0.3l-1.3,0.8l-0.5,0.5l0,0.2
		l1.1,1.1l0.2,0l0.5-0.5l0.6-1.4l0.4-0.5l0.5-0.4l0.9-0.4l0.1,0.1l0.2,0l0.6,0.7l1.2,1l0.6,0.8l0.1-0.1l0.1,0.3l0.7,0.7l0.2,0
		l0.1,0.2l0.7,0.7l0.2-0.1l0,0.1c0,0,0,0.5,0,0.5s0.2,0.7,0.3,0.7c0,0,0.6,0.6,0.6,0.6l0.9,0l0.7-0.3l0.2-0.2l0.2-0.2l0.3-0.7
		L34,31.6z M25.6,25.5l-0.4,0.7l-14.7-15L10.1,10l1.2,0.6l15,14.5L25.6,25.5z M33.3,33L33,32.8l0,0.4l-0.5,0.2l-0.6,0L31.8,33
		l-0.1-0.5l0-0.4l0.2-0.1l0.2-0.4l0.4-0.2c0,0,0.5,0,0.5,0s0.4,0.4,0.4,0.4l0,0.6L33.3,33z" fill="#FFFFFF"/>
		<path d="M33.7,8.7l-1.2-0.1l-1.3,0.1l-1,0.7L21,18.6l1,1l9.2-9l1.1-0.4l-0.5,1.2L23,20.5l0.9,0.9l9.2-9.2l0.7-1l0.1-1.3L33.7,8.7z" fill="#FFFFFF"/>
	</g>
</svg>
