<?xml version="1.0" encoding="utf-8"?>
<svg xmlns="http://www.w3.org/2000/svg" width="14.161" height="14.173" viewBox="0 0 14.161 14.173">
  <path id="Path_14" data-name="Path 14" d="M0,0-.552.07l-.537.14-.537.1L-2.141.5-2.7.564l-.476.287-.464.293-.493.25-.43.343v.106l-.044-.037-.415.359-.3.468-.358.411-.344.427-.253.486-.211.5L-6.6,5l-.283.488-.032.552-.116.538.048.549-.078.529.185.507.02.529.125.511.145.509.333.426.242.46.135.536.45.321.308.423.39.347.4.331.415.313.41.327.454.265.454.281.524.1.513.113.519.073.516.08L0,14.173l.519-.126.533.056L1.57,14l.479-.237.51-.126.483-.2.431-.3.5-.191.383-.364L4.8,12.3l.3-.447.373-.366.329-.409.349-.4.2-.493.2-.487.21-.485L6.915,8.7l-.052-.543.227-.5-.06-.531L7.1,6.58l-.086-.536-.08-.537-.265-.486-.111-.529-.284-.461-.212-.494-.287-.454-.4-.367-.328-.425.108-.112-.214.068-.3-.494-.5-.269-.446-.33L3.214.865,2.687.684,2.194.42,1.661.252,1.113.142.558.078Z" transform="translate(7.061)" fill="#2b2e34"/>
</svg>
