<?xml version="1.0" encoding="utf-8"?>
<svg version="1.1" id="Wealth" xmlns="http://www.w3.org/2000/svg" xmlns:xlink="http://www.w3.org/1999/xlink" x="0px" y="0px" viewBox="0 0 22.1 30.3" xml:space="preserve">
<g>
	<path d="M11.8,6.5l1.7,1l2.4-0.8l-0.4-2.4L14,3.5l-2.3,1.3L10.2,4l-1-0.6L7.8,3.8l2.8,3.6L11.8,6.5z" fill="#FFFFFF"/>
	<path d="M19.2,18.8L19,16.3L14.3,11l0.6-0.9l-0.4-0.5l3.2-2.2L17,2.8l-2.8-1.5L12,2.5l-1.5-1L10,1.9L9.4,1.5L5.9,2.7
		L7,8.5L6.8,9.2l0.6,1l-4.1,4.6l-0.4,2.8l-1.3,1.8v3.5l0.9,1.5L3,26.7l1.2,0.9l1.6,0.2L7.3,29l1.8,0.1l1.7-0.6l2.1,0.6l2.6-0.6
		l0.9-0.9l1.3-0.5l1.1-1.1l0.4-1.5l0.8-0.6l0.6-2.6L19.2,18.8z M7.1,3.4l2.4-0.9L10,3.1l0.5-0.5l1.4,1.1l2.4-1.4l2,1.2L16.8,7
		l-3.6,2.2l0,0L12,8.3c0,0-1.2,1.1-1.3,1.2L8.5,6.3l0.4,2.5L8.1,8.4L7.1,3.4z M17.4,24.4l-0.3-2.1l-1.5,2.9l-2.3,1.1l-2.5-1.2
		l-3-1.7l1.5,3l-1.5-0.3l-1.2-1.4l-1.4-0.2L5.8,21l-1.9,0.6L4,19.9l2.9-4.7l-1.7,0.3l0.4-1.2l2.5-3.5L8.9,11v4l2.1-3.4l1.8-0.3
		l1.1,0.6l2.8,3.6L15,15.2l3.7,6.4L17.4,24.4z" fill="#FFFFFF"/>
	<path d="M10.9,19.3l1.7,3.2l0.7-3.5l-2.7-3.3L10.9,19.3z" fill="#FFFFFF"/>
</g>
</svg>
